<svg width="32" height="32" viewBox="0 0 32 32" fill="none" xmlns="http://www.w3.org/2000/svg">
  <style>
    @keyframes pulse {
      0%, 100% { transform: translateY(0); }
      50% { transform: translateY(-1px); }
    }
    @keyframes thrust {
      0%, 100% { opacity: 0.6; transform: scaleY(1); }
      50% { opacity: 1; transform: scaleY(1.2); }
    }
    @keyframes spin {
      from { transform: rotate(0deg); }
      to { transform: rotate(360deg); }
    }
    .rocket { animation: pulse 2s ease-in-out infinite; transform-origin: center; }
    .thrust { animation: thrust 0.2s ease-in-out infinite; transform-origin: 16px 24px; }
    .orbit { animation: spin 4s linear infinite; transform-origin: 16px 16px; }
  </style>
  
  <!-- Background Circle -->
  <circle cx="16" cy="16" r="15" fill="#09090b" stroke="#1e1e21" stroke-width="1"/>
  
  <!-- Animated Orbit/Pipeline -->
  <circle class="orbit" cx="16" cy="16" r="12" stroke="#3b82f6" stroke-width="1.5" stroke-dasharray="4 8" stroke-linecap="round" opacity="0.4"/>
  
  <g class="rocket">
    <!-- Rocket Body -->
    <path d="M16 6C14 10 13 14 13 18C13 20 14 22 16 22C18 22 19 20 19 18C19 14 18 10 16 6Z" fill="#3b82f6"/>
    <!-- Fins -->
    <path d="M13 18L10 21V22H13V18Z" fill="#1d4ed8"/>
    <path d="M19 18L22 21V22H19V18Z" fill="#1d4ed8"/>
    <!-- Window -->
    <circle cx="16" cy="12" r="1.5" fill="#eff6ff"/>
    <!-- Thrust -->
    <path class="thrust" d="M14 22L16 28L18 22H14Z" fill="url(#thrustGradient)"/>
  </g>
  
  <defs>
    <linearGradient id="thrustGradient" x1="16" y1="22" x2="16" y2="28" gradientUnits="userSpaceOnUse">
      <stop stop-color="#60a5fa"/>
      <stop offset="1" stop-color="#3b82f6" stop-opacity="0"/>
    </linearGradient>
  </defs>
</svg>
